<mxfile host="app.diagrams.net" modified="2024-01-22T11:54:29.625Z" agent="Mozilla/5.0 (Windows NT 10.0; Win64; x64) AppleWebKit/537.36 (KHTML, like Gecko) Chrome/116.0.0.0 Safari/537.36" etag="XvxV3c6yMETURLxkwHbZ" version="22.1.21" type="github">
  <diagram id="C5RBs43oDa-KdzZeNtuy" name="Page-1">
    <mxGraphModel dx="2477" dy="573" grid="1" gridSize="10" guides="1" tooltips="1" connect="1" arrows="1" fold="1" page="1" pageScale="1" pageWidth="827" pageHeight="1169" math="0" shadow="0">
      <root>
        <mxCell id="WIyWlLk6GJQsqaUBKTNV-0" />
        <mxCell id="WIyWlLk6GJQsqaUBKTNV-1" parent="WIyWlLk6GJQsqaUBKTNV-0" />
        <mxCell id="WIyWlLk6GJQsqaUBKTNV-2" value="" style="rounded=0;html=1;jettySize=auto;orthogonalLoop=1;fontSize=11;endArrow=block;endFill=0;endSize=8;strokeWidth=1;shadow=0;labelBackgroundColor=none;edgeStyle=orthogonalEdgeStyle;" parent="WIyWlLk6GJQsqaUBKTNV-1" source="WIyWlLk6GJQsqaUBKTNV-3" edge="1">
          <mxGeometry relative="1" as="geometry">
            <mxPoint x="220" y="170" as="targetPoint" />
          </mxGeometry>
        </mxCell>
        <mxCell id="5tpfrVj5ZAOb9_WyAPQ0-0" value="" style="edgeStyle=none;curved=1;rounded=0;orthogonalLoop=1;jettySize=auto;html=1;fontSize=12;startSize=8;endSize=8;entryX=0.5;entryY=0;entryDx=0;entryDy=0;" edge="1" parent="WIyWlLk6GJQsqaUBKTNV-1" source="WIyWlLk6GJQsqaUBKTNV-3" target="5tpfrVj5ZAOb9_WyAPQ0-2">
          <mxGeometry relative="1" as="geometry">
            <mxPoint x="220" y="170" as="targetPoint" />
          </mxGeometry>
        </mxCell>
        <mxCell id="WIyWlLk6GJQsqaUBKTNV-3" value="Start" style="rounded=1;whiteSpace=wrap;html=1;fontSize=12;glass=0;strokeWidth=1;shadow=0;" parent="WIyWlLk6GJQsqaUBKTNV-1" vertex="1">
          <mxGeometry x="160" y="80" width="120" height="40" as="geometry" />
        </mxCell>
        <mxCell id="5tpfrVj5ZAOb9_WyAPQ0-6" value="" style="edgeStyle=none;curved=1;rounded=0;orthogonalLoop=1;jettySize=auto;html=1;fontSize=12;startSize=8;endSize=8;" edge="1" parent="WIyWlLk6GJQsqaUBKTNV-1" source="5tpfrVj5ZAOb9_WyAPQ0-2" target="5tpfrVj5ZAOb9_WyAPQ0-5">
          <mxGeometry relative="1" as="geometry" />
        </mxCell>
        <mxCell id="5tpfrVj5ZAOb9_WyAPQ0-2" value="Generate a random word" style="whiteSpace=wrap;html=1;rounded=1;glass=0;strokeWidth=1;shadow=0;" vertex="1" parent="WIyWlLk6GJQsqaUBKTNV-1">
          <mxGeometry x="160" y="190" width="120" height="60" as="geometry" />
        </mxCell>
        <mxCell id="5tpfrVj5ZAOb9_WyAPQ0-8" value="" style="edgeStyle=none;curved=1;rounded=0;orthogonalLoop=1;jettySize=auto;html=1;fontSize=12;startSize=8;endSize=8;" edge="1" parent="WIyWlLk6GJQsqaUBKTNV-1" source="5tpfrVj5ZAOb9_WyAPQ0-5" target="5tpfrVj5ZAOb9_WyAPQ0-7">
          <mxGeometry relative="1" as="geometry" />
        </mxCell>
        <mxCell id="5tpfrVj5ZAOb9_WyAPQ0-5" value="Generate as many blanks as letters in word" style="whiteSpace=wrap;html=1;rounded=1;glass=0;strokeWidth=1;shadow=0;" vertex="1" parent="WIyWlLk6GJQsqaUBKTNV-1">
          <mxGeometry x="160" y="270" width="120" height="60" as="geometry" />
        </mxCell>
        <mxCell id="5tpfrVj5ZAOb9_WyAPQ0-10" value="" style="edgeStyle=none;curved=1;rounded=0;orthogonalLoop=1;jettySize=auto;html=1;fontSize=12;startSize=8;endSize=8;" edge="1" parent="WIyWlLk6GJQsqaUBKTNV-1" source="5tpfrVj5ZAOb9_WyAPQ0-7" target="5tpfrVj5ZAOb9_WyAPQ0-9">
          <mxGeometry relative="1" as="geometry" />
        </mxCell>
        <mxCell id="5tpfrVj5ZAOb9_WyAPQ0-7" value="input :Guess a letter" style="whiteSpace=wrap;html=1;rounded=1;glass=0;strokeWidth=1;shadow=0;" vertex="1" parent="WIyWlLk6GJQsqaUBKTNV-1">
          <mxGeometry x="160" y="350" width="120" height="60" as="geometry" />
        </mxCell>
        <mxCell id="5tpfrVj5ZAOb9_WyAPQ0-12" value="" style="edgeStyle=none;curved=1;rounded=0;orthogonalLoop=1;jettySize=auto;html=1;fontSize=12;startSize=8;endSize=8;" edge="1" parent="WIyWlLk6GJQsqaUBKTNV-1" source="5tpfrVj5ZAOb9_WyAPQ0-9" target="5tpfrVj5ZAOb9_WyAPQ0-11">
          <mxGeometry relative="1" as="geometry">
            <Array as="points">
              <mxPoint x="390" y="510" />
            </Array>
          </mxGeometry>
        </mxCell>
        <mxCell id="5tpfrVj5ZAOb9_WyAPQ0-14" value="" style="edgeStyle=none;curved=1;rounded=0;orthogonalLoop=1;jettySize=auto;html=1;fontSize=12;startSize=8;endSize=8;" edge="1" parent="WIyWlLk6GJQsqaUBKTNV-1" source="5tpfrVj5ZAOb9_WyAPQ0-9" target="5tpfrVj5ZAOb9_WyAPQ0-13">
          <mxGeometry relative="1" as="geometry">
            <Array as="points">
              <mxPoint x="60" y="510" />
            </Array>
          </mxGeometry>
        </mxCell>
        <mxCell id="5tpfrVj5ZAOb9_WyAPQ0-9" value="is guessed letter in the word" style="rhombus;whiteSpace=wrap;html=1;rounded=1;glass=0;strokeWidth=1;shadow=0;" vertex="1" parent="WIyWlLk6GJQsqaUBKTNV-1">
          <mxGeometry x="150" y="450" width="140" height="140" as="geometry" />
        </mxCell>
        <mxCell id="5tpfrVj5ZAOb9_WyAPQ0-18" value="" style="edgeStyle=none;curved=1;rounded=0;orthogonalLoop=1;jettySize=auto;html=1;fontSize=12;startSize=8;endSize=8;" edge="1" parent="WIyWlLk6GJQsqaUBKTNV-1" source="5tpfrVj5ZAOb9_WyAPQ0-11" target="5tpfrVj5ZAOb9_WyAPQ0-17">
          <mxGeometry relative="1" as="geometry" />
        </mxCell>
        <mxCell id="5tpfrVj5ZAOb9_WyAPQ0-11" value="Play 1 Step of hangman" style="whiteSpace=wrap;html=1;rounded=1;glass=0;strokeWidth=1;shadow=0;" vertex="1" parent="WIyWlLk6GJQsqaUBKTNV-1">
          <mxGeometry x="325" y="585" width="120" height="60" as="geometry" />
        </mxCell>
        <mxCell id="5tpfrVj5ZAOb9_WyAPQ0-16" value="" style="edgeStyle=none;curved=1;rounded=0;orthogonalLoop=1;jettySize=auto;html=1;fontSize=12;startSize=8;endSize=8;" edge="1" parent="WIyWlLk6GJQsqaUBKTNV-1" source="5tpfrVj5ZAOb9_WyAPQ0-13" target="5tpfrVj5ZAOb9_WyAPQ0-15">
          <mxGeometry relative="1" as="geometry" />
        </mxCell>
        <mxCell id="5tpfrVj5ZAOb9_WyAPQ0-13" value="Replace the blanks with letter" style="whiteSpace=wrap;html=1;rounded=1;glass=0;strokeWidth=1;shadow=0;" vertex="1" parent="WIyWlLk6GJQsqaUBKTNV-1">
          <mxGeometry x="10" y="590" width="120" height="60" as="geometry" />
        </mxCell>
        <mxCell id="5tpfrVj5ZAOb9_WyAPQ0-23" style="edgeStyle=orthogonalEdgeStyle;rounded=0;orthogonalLoop=1;jettySize=auto;html=1;exitX=0;exitY=0.5;exitDx=0;exitDy=0;entryX=0;entryY=0.5;entryDx=0;entryDy=0;fontSize=12;startSize=8;endSize=8;" edge="1" parent="WIyWlLk6GJQsqaUBKTNV-1" source="5tpfrVj5ZAOb9_WyAPQ0-15" target="5tpfrVj5ZAOb9_WyAPQ0-7">
          <mxGeometry relative="1" as="geometry" />
        </mxCell>
        <mxCell id="5tpfrVj5ZAOb9_WyAPQ0-32" style="edgeStyle=orthogonalEdgeStyle;rounded=0;orthogonalLoop=1;jettySize=auto;html=1;exitX=1;exitY=0.5;exitDx=0;exitDy=0;fontSize=12;startSize=8;endSize=8;" edge="1" parent="WIyWlLk6GJQsqaUBKTNV-1" source="5tpfrVj5ZAOb9_WyAPQ0-15">
          <mxGeometry relative="1" as="geometry">
            <mxPoint x="240" y="840" as="targetPoint" />
          </mxGeometry>
        </mxCell>
        <mxCell id="5tpfrVj5ZAOb9_WyAPQ0-15" value="Are all the blanks filled ?" style="rhombus;whiteSpace=wrap;html=1;rounded=1;glass=0;strokeWidth=1;shadow=0;" vertex="1" parent="WIyWlLk6GJQsqaUBKTNV-1">
          <mxGeometry x="-10" y="680" width="160" height="150" as="geometry" />
        </mxCell>
        <mxCell id="5tpfrVj5ZAOb9_WyAPQ0-20" value="" style="edgeStyle=orthogonalEdgeStyle;rounded=0;orthogonalLoop=1;jettySize=auto;html=1;fontSize=12;startSize=8;endSize=8;entryX=1;entryY=0.5;entryDx=0;entryDy=0;" edge="1" parent="WIyWlLk6GJQsqaUBKTNV-1" source="5tpfrVj5ZAOb9_WyAPQ0-17" target="5tpfrVj5ZAOb9_WyAPQ0-7">
          <mxGeometry relative="1" as="geometry">
            <mxPoint x="520" y="370" as="targetPoint" />
            <Array as="points">
              <mxPoint x="490" y="750" />
              <mxPoint x="490" y="380" />
            </Array>
          </mxGeometry>
        </mxCell>
        <mxCell id="5tpfrVj5ZAOb9_WyAPQ0-31" style="edgeStyle=orthogonalEdgeStyle;rounded=0;orthogonalLoop=1;jettySize=auto;html=1;exitX=0;exitY=0.5;exitDx=0;exitDy=0;entryX=0.5;entryY=0;entryDx=0;entryDy=0;fontSize=12;startSize=8;endSize=8;" edge="1" parent="WIyWlLk6GJQsqaUBKTNV-1" source="5tpfrVj5ZAOb9_WyAPQ0-17" target="5tpfrVj5ZAOb9_WyAPQ0-30">
          <mxGeometry relative="1" as="geometry">
            <Array as="points">
              <mxPoint x="240" y="755" />
            </Array>
          </mxGeometry>
        </mxCell>
        <mxCell id="5tpfrVj5ZAOb9_WyAPQ0-17" value="is hangman dead?" style="rhombus;whiteSpace=wrap;html=1;rounded=1;glass=0;strokeWidth=1;shadow=0;" vertex="1" parent="WIyWlLk6GJQsqaUBKTNV-1">
          <mxGeometry x="320" y="685" width="130" height="140" as="geometry" />
        </mxCell>
        <mxCell id="5tpfrVj5ZAOb9_WyAPQ0-24" value="NO" style="text;html=1;align=center;verticalAlign=middle;resizable=0;points=[];autosize=1;strokeColor=none;fillColor=none;fontSize=16;" vertex="1" parent="WIyWlLk6GJQsqaUBKTNV-1">
          <mxGeometry x="455" y="748" width="50" height="30" as="geometry" />
        </mxCell>
        <mxCell id="5tpfrVj5ZAOb9_WyAPQ0-26" value="NO" style="text;html=1;align=center;verticalAlign=middle;resizable=0;points=[];autosize=1;strokeColor=none;fillColor=none;fontSize=16;" vertex="1" parent="WIyWlLk6GJQsqaUBKTNV-1">
          <mxGeometry x="-65" y="758" width="50" height="30" as="geometry" />
        </mxCell>
        <mxCell id="5tpfrVj5ZAOb9_WyAPQ0-30" value="Game Over" style="rounded=1;whiteSpace=wrap;html=1;fontSize=16;" vertex="1" parent="WIyWlLk6GJQsqaUBKTNV-1">
          <mxGeometry x="155" y="840" width="170" height="100" as="geometry" />
        </mxCell>
        <mxCell id="5tpfrVj5ZAOb9_WyAPQ0-34" value="yes" style="text;html=1;align=center;verticalAlign=middle;resizable=0;points=[];autosize=1;strokeColor=none;fillColor=none;fontSize=16;" vertex="1" parent="WIyWlLk6GJQsqaUBKTNV-1">
          <mxGeometry x="215" y="728" width="50" height="30" as="geometry" />
        </mxCell>
        <mxCell id="5tpfrVj5ZAOb9_WyAPQ0-35" value="NO" style="text;html=1;align=center;verticalAlign=middle;resizable=0;points=[];autosize=1;strokeColor=none;fillColor=none;fontSize=16;" vertex="1" parent="WIyWlLk6GJQsqaUBKTNV-1">
          <mxGeometry x="375" y="518" width="50" height="30" as="geometry" />
        </mxCell>
        <mxCell id="5tpfrVj5ZAOb9_WyAPQ0-36" value="Yes" style="text;html=1;align=center;verticalAlign=middle;resizable=0;points=[];autosize=1;strokeColor=none;fillColor=none;fontSize=16;" vertex="1" parent="WIyWlLk6GJQsqaUBKTNV-1">
          <mxGeometry x="15" y="508" width="50" height="30" as="geometry" />
        </mxCell>
      </root>
    </mxGraphModel>
  </diagram>
</mxfile>
